<svg width="200.19998779296876px" height="167.85749206542968px" xmlns="http://www.w3.org/2000/svg" viewBox="149.90000610351564 -8.928746032714841 200.19998779296876 167.85749206542968" style="background: rgb(255, 255, 255);" preserveAspectRatio="xMidYMid"><defs><filter id="editing-extrude-glow"><feFlood flood-color="#ffffff" result="flood-1"></feFlood><feMorphology operator="erode" radius="1" in="SourceAlpha" result="erode"></feMorphology><feComposite operator="in" in="flood-1" in2="erode" result="comp1"></feComposite><feConvolveMatrix order="3,3" divisor="1" in="comp1" result="convolve" kernelMatrix="0 0 0 1 1 1 0 0 0"></feConvolveMatrix><feOffset dx="-3" dy="0" in="convolve" result="extrude"></feOffset><feComposite operator="in" in="flood-1" in2="extrude" result="comp-extrude"></feComposite><feFlood flood-color="#ffffff" result="flood-2"></feFlood><feComposite operator="in" in="flood-2" in2="SourceAlpha" result="comp2"></feComposite><feMorphology operator="dilate" radius="1" in="comp2" result="dilate"></feMorphology><feOffset dx="-4.5" dy="0" in="dilate" result="offset"></feOffset><feGaussianBlur in="offset" stdDeviation="5.8" result="blur"></feGaussianBlur><feComponentTransfer in="blur" result="shadow"><feFuncA type="linear" slope="0.8" intercept="-0.2"></feFuncA></feComponentTransfer><feMerge><feMergeNode in="shadow"></feMergeNode><feMergeNode in="comp-extrude"></feMergeNode><feMergeNode in="SourceGraphic"></feMergeNode></feMerge></filter></defs><g filter="url(#editing-extrude-glow)"><g transform="translate(182.75000548362732, 106.21500015258789)"><path d="M15.05 0L2.74 0L2.74-61.85L14.98-61.85L14.98-37.08L20.74-61.85L33.19-61.85L26.28-33.55L34.63 0L21.82 0L15.05-29.95L15.05 0ZM48.82 0L36.72 0L36.72-61.85L49.46-61.85L55.15-32.26L55.15-61.85L67.10-61.85L67.10 0L55.01 0L48.82-30.96L48.82 0ZM86.90 0.58L86.90 0.58Q79.27 0.58 75.56-3.74L75.56-3.74L75.56-3.74Q71.86-8.06 71.86-16.56L71.86-16.56L71.86-61.85L83.88-61.85L83.88-17.06L83.88-17.06Q83.88-14.11 84.46-12.46L84.46-12.46L84.46-12.46Q85.03-10.80 86.90-10.80L86.90-10.80L86.90-10.80Q88.78-10.80 89.35-12.42L89.35-12.42L89.35-12.42Q89.93-14.04 89.93-17.06L89.93-17.06L89.93-61.85L101.95-61.85L101.95-16.56L101.95-16.56Q101.95-8.06 98.24-3.74L98.24-3.74L98.24-3.74Q94.54 0.58 86.90 0.58L86.90 0.58ZM124.42 0L112.03 0L112.03-49.97L104.69-49.97L104.69-61.85L131.76-61.85L131.76-49.97L124.42-49.97L124.42 0Z" fill="#ee5a30"></path></g></g><style>text {
  font-size: 64px;
  font-family: Arial Black;
  dominant-baseline: central;
  text-anchor: middle;
}</style></svg>